<svg width="64" height="64" viewBox="0 0 64 64" fill="none" xmlns="http://www.w3.org/2000/svg">
<path d="M42.6667 15.9999C42.6667 18.8289 41.5429 21.542 39.5425 23.5424C37.5421 25.5428 34.829 26.6666 32 26.6666C29.1711 26.6666 26.458 25.5428 24.4576 23.5424C22.4572 21.542 21.3334 18.8289 21.3334 15.9999C21.3334 13.1709 22.4572 10.4578 24.4576 8.45745C26.458 6.45706 29.1711 5.33325 32 5.33325C34.829 5.33325 37.5421 6.45706 39.5425 8.45745C41.5429 10.4578 42.6667 13.1709 42.6667 15.9999Z" fill="#7F47FF"/>
<path opacity="0.5" d="M38.6053 58.4534C36.6693 58.5947 34.48 58.6667 32 58.6667C10.6666 58.6667 10.6666 53.2934 10.6666 46.6667C10.6666 40.0401 20.2186 34.6667 32 34.6667C39.68 34.6667 46.416 36.9494 50.1706 40.3761C48.7946 40.0001 46.864 40.0001 44 40.0001C39.6 40.0001 37.4 40.0001 36.0346 41.3681C34.6666 42.7334 34.6666 44.9334 34.6666 49.3334C34.6666 53.7334 34.6666 55.9334 36.0346 57.2987C36.6666 57.9334 37.48 58.2694 38.6053 58.4534Z" fill="#7F47FF"/>
<path fill-rule="evenodd" clip-rule="evenodd" d="M44 58.6667C39.6 58.6667 37.4 58.6667 36.0346 57.2987C34.6666 55.9333 34.6666 53.7333 34.6666 49.3333C34.6666 44.9333 34.6666 42.7333 36.0346 41.368C37.4 40 39.6 40 44 40C48.4 40 50.6 40 51.9653 41.368C53.3333 42.7333 53.3333 44.9333 53.3333 49.3333C53.3333 53.7333 53.3333 55.9333 51.9653 57.2987C50.6 58.6667 48.4 58.6667 44 58.6667ZM40.952 44.0853C40.6602 43.7936 40.2645 43.6297 39.852 43.6297C39.4394 43.6297 39.0437 43.7936 38.752 44.0853C38.4602 44.3771 38.2963 44.7728 38.2963 45.1853C38.2963 45.5979 38.4602 45.9936 38.752 46.2853L41.8 49.3333L38.752 52.3813C38.6075 52.5258 38.4929 52.6973 38.4147 52.886C38.3366 53.0748 38.2963 53.277 38.2963 53.4813C38.2963 53.6856 38.3366 53.8879 38.4147 54.0767C38.4929 54.2654 38.6075 54.4369 38.752 54.5813C38.8964 54.7258 39.0679 54.8404 39.2566 54.9186C39.4454 54.9967 39.6477 55.037 39.852 55.037C40.0562 55.037 40.2585 54.9967 40.4473 54.9186C40.636 54.8404 40.8075 54.7258 40.952 54.5813L44 51.5333L47.048 54.5813C47.1924 54.7258 47.3639 54.8404 47.5526 54.9186C47.7414 54.9967 47.9437 55.037 48.148 55.037C48.3522 55.037 48.5545 54.9967 48.7433 54.9186C48.932 54.8404 49.1035 54.7258 49.248 54.5813C49.3924 54.4369 49.507 54.2654 49.5852 54.0767C49.6634 53.8879 49.7036 53.6856 49.7036 53.4813C49.7036 53.277 49.6634 53.0748 49.5852 52.886C49.507 52.6973 49.3924 52.5258 49.248 52.3813L46.2 49.3333L49.248 46.2853C49.5397 45.9936 49.7036 45.5979 49.7036 45.1853C49.7036 44.7728 49.5397 44.3771 49.248 44.0853C48.9562 43.7936 48.5605 43.6297 48.148 43.6297C47.7354 43.6297 47.3397 43.7936 47.048 44.0853L44 47.1333L40.952 44.0853Z" fill="#7F47FF"/>
</svg>
