<svg width="44" height="44" viewBox="0 0 44 44" fill="none" xmlns="http://www.w3.org/2000/svg">
<path d="M0 8.80002C0 6.38002 1.98 4.40002 4.4 4.40002H37.4C37.9835 4.40002 38.5431 4.63181 38.9556 5.04439C39.3682 5.45697 39.6 6.01655 39.6 6.60002V8.80002H4.4V11H41.8C42.3835 11 42.9431 11.2318 43.3556 11.6444C43.7682 12.057 44 12.6165 44 13.2V35.2C44 36.367 43.5364 37.4861 42.7113 38.3113C41.8861 39.1365 40.767 39.6 39.6 39.6H4.4C3.23305 39.6 2.11389 39.1365 1.28873 38.3113C0.46357 37.4861 0 36.367 0 35.2V8.80002ZM36.3 28.6C37.1752 28.6 38.0146 28.2523 38.6335 27.6335C39.2523 27.0146 39.6 26.1752 39.6 25.3C39.6 24.4248 39.2523 23.5854 38.6335 22.9666C38.0146 22.3477 37.1752 22 36.3 22C35.4248 22 34.5854 22.3477 33.9665 22.9666C33.3477 23.5854 33 24.4248 33 25.3C33 26.1752 33.3477 27.0146 33.9665 27.6335C34.5854 28.2523 35.4248 28.6 36.3 28.6Z" fill="white"/>
</svg>
