<svg width="25" height="25" viewBox="0 0 25 25" fill="none" xmlns="http://www.w3.org/2000/svg">
<path d="M18.5025 12.335C18.5025 13.9707 17.8527 15.5395 16.6961 16.6961C15.5394 17.8527 13.9707 18.5025 12.335 18.5025C10.6993 18.5025 9.13053 17.8527 7.9739 16.6961C6.81727 15.5395 6.16748 13.9707 6.16748 12.335C6.16748 10.6993 6.81727 9.13055 7.9739 7.97392C9.13053 6.81729 10.6993 6.1675 12.335 6.1675C13.9707 6.1675 15.5394 6.81729 16.6961 7.97392C17.8527 9.13055 18.5025 10.6993 18.5025 12.335Z" fill="white"/>
<path fill-rule="evenodd" clip-rule="evenodd" d="M12.3348 1.2849C12.5392 1.2849 12.7353 1.36612 12.8799 1.5107C13.0245 1.65528 13.1057 1.85137 13.1057 2.05583V3.08375C13.1057 3.28822 13.0245 3.48431 12.8799 3.62889C12.7353 3.77347 12.5392 3.85469 12.3348 3.85469C12.1303 3.85469 11.9342 3.77347 11.7896 3.62889C11.6451 3.48431 11.5638 3.28822 11.5638 3.08375V2.05583C11.5638 1.85137 11.6451 1.65528 11.7896 1.5107C11.9342 1.36612 12.1303 1.2849 12.3348 1.2849ZM4.52158 4.52181C4.66613 4.37744 4.86207 4.29634 5.06637 4.29634C5.27067 4.29634 5.46662 4.37744 5.61117 4.52181L6.01514 4.92475C6.15564 5.07008 6.23344 5.26479 6.23178 5.46693C6.23012 5.66907 6.14913 5.86247 6.00626 6.00547C5.86339 6.14848 5.67007 6.22965 5.46793 6.2315C5.26579 6.23335 5.07101 6.15573 4.92555 6.01537L4.52158 5.6114C4.37721 5.46685 4.29611 5.2709 4.29611 5.0666C4.29611 4.8623 4.37721 4.66636 4.52158 4.52181ZM20.148 4.52181C20.2923 4.66636 20.3734 4.8623 20.3734 5.0666C20.3734 5.2709 20.2923 5.46685 20.148 5.6114L19.744 6.01537C19.5979 6.15155 19.4046 6.22568 19.2048 6.22216C19.0051 6.21864 18.8145 6.13773 18.6733 5.99648C18.532 5.85523 18.4511 5.66467 18.4476 5.46494C18.4441 5.26522 18.5182 5.07192 18.6544 4.92578L19.0584 4.52181C19.2029 4.37744 19.3989 4.29634 19.6032 4.29634C19.8075 4.29634 20.0034 4.37744 20.148 4.52181ZM1.28467 12.335C1.28467 12.1305 1.36589 11.9344 1.51047 11.7899C1.65505 11.6453 1.85114 11.5641 2.05561 11.5641H3.08352C3.28799 11.5641 3.48408 11.6453 3.62866 11.7899C3.77324 11.9344 3.85446 12.1305 3.85446 12.335C3.85446 12.5395 3.77324 12.7356 3.62866 12.8801C3.48408 13.0247 3.28799 13.1059 3.08352 13.1059H2.05561C1.85114 13.1059 1.65505 13.0247 1.51047 12.8801C1.36589 12.7356 1.28467 12.5395 1.28467 12.335ZM20.8151 12.335C20.8151 12.1305 20.8963 11.9344 21.0409 11.7899C21.1855 11.6453 21.3816 11.5641 21.586 11.5641H22.6139C22.8184 11.5641 23.0145 11.6453 23.1591 11.7899C23.3037 11.9344 23.3849 12.1305 23.3849 12.335C23.3849 12.5395 23.3037 12.7356 23.1591 12.8801C23.0145 13.0247 22.8184 13.1059 22.6139 13.1059H21.586C21.3816 13.1059 21.1855 13.0247 21.0409 12.8801C20.8963 12.7356 20.8151 12.5395 20.8151 12.335ZM18.6544 18.6546C18.799 18.5103 18.9949 18.4292 19.1992 18.4292C19.4035 18.4292 19.5994 18.5103 19.744 18.6546L20.148 19.0586C20.2237 19.1292 20.2845 19.2143 20.3266 19.3089C20.3687 19.4034 20.3914 19.5055 20.3932 19.609C20.395 19.7125 20.376 19.8154 20.3372 19.9114C20.2985 20.0074 20.2407 20.0946 20.1675 20.1678C20.0943 20.241 20.0071 20.2987 19.9111 20.3375C19.8151 20.3762 19.7123 20.3953 19.6088 20.3934C19.5053 20.3916 19.4032 20.369 19.3086 20.3268C19.2141 20.2847 19.129 20.2239 19.0584 20.1482L18.6544 19.7442C18.51 19.5997 18.4289 19.4037 18.4289 19.1994C18.4289 18.9951 18.51 18.7992 18.6544 18.6546ZM6.01514 18.6546C6.15951 18.7992 6.2406 18.9951 6.2406 19.1994C6.2406 19.4037 6.15951 19.5997 6.01514 19.7442L5.61117 20.1482C5.54059 20.2239 5.45548 20.2847 5.36091 20.3268C5.26634 20.369 5.16426 20.3916 5.06074 20.3934C4.95723 20.3953 4.85441 20.3762 4.75841 20.3375C4.66242 20.2987 4.57521 20.241 4.50201 20.1678C4.4288 20.0946 4.37109 20.0074 4.33231 19.9114C4.29354 19.8154 4.2745 19.7125 4.27633 19.609C4.27815 19.5055 4.30081 19.4034 4.34294 19.3089C4.38508 19.2143 4.44583 19.1292 4.52158 19.0586L4.92452 18.6546C4.99612 18.583 5.08113 18.5262 5.17469 18.4874C5.26826 18.4486 5.36855 18.4287 5.46983 18.4287C5.57111 18.4287 5.6714 18.4486 5.76497 18.4874C5.85854 18.5262 5.94355 18.583 6.01514 18.6546ZM12.3348 20.8153C12.5392 20.8153 12.7353 20.8965 12.8799 21.0411C13.0245 21.1857 13.1057 21.3818 13.1057 21.5863V22.6142C13.1057 22.8186 13.0245 23.0147 12.8799 23.1593C12.7353 23.3039 12.5392 23.3851 12.3348 23.3851C12.1303 23.3851 11.9342 23.3039 11.7896 23.1593C11.6451 23.0147 11.5638 22.8186 11.5638 22.6142V21.5863C11.5638 21.3818 11.6451 21.1857 11.7896 21.0411C11.9342 20.8965 12.1303 20.8153 12.3348 20.8153Z" fill="white"/>
</svg>
